# xmcd
#
# Track frame offsets:
# 150
# 22712
# 41205
# 59294
# 78056
# 96347
# 113885
# 130854
# 149588
# 167661
# 188050
# 203664
# 224988
# 236353
# 255570
# 274676
#
# Disc length: 3875 seconds
#
# Revision: 1
# Processed by: cddbd v1.5.1PL0 Copyright (c) Steve Scherf et al.
# Submitted via: plextools 2.12
#
DISCID=e20f2110
DTITLE=Inker and Hamilton - All The Best
DYEAR=1998
DGENRE=Pop
TTITLE0=Inker and Hamilton - Calling Your Name
TTITLE1=Inker and Hamilton - Soul Gardian
TTITLE2=Inker and Hamilton - Faith, Hope and Fortune
TTITLE3=Inker and Hamilton - Someone Sent Me Flowers Today
TTITLE4=Inker and Hamilton - You'll Never Find Love
TTITLE5=Inker and Hamilton - Poetry in Motion
TTITLE6=Inker and Hamilton - Porcelain Doll
TTITLE7=Inker and Hamilton - It's a Crime
TTITLE8=Inker and Hamilton - Dancing into Danger
TTITLE9=Inker and Hamilton - Afraid
TTITLE10=Inker and Hamilton - Alice
TTITLE11=Inker and Hamilton - Reason
TTITLE12=Inker and Hamilton - Brave New World
TTITLE13=Inker and Hamilton - Where Are You Now
TTITLE14=Inker and Hamilton - The Same Film Twice
TTITLE15=Inker and Hamilton - Desperado
EXTD=Hunter Records The Netherlands UPC/EAN: 8715177135920
EXTT0=1998
EXTT1=1995
EXTT2=1995
EXTT3=1995
EXTT4=1992
EXTT5=1991
EXTT6=1991
EXTT7=1991
EXTT8=1998 (re-recording) (1988 original)
EXTT9=1982
EXTT10=1982
EXTT11=1981
EXTT12=1981
EXTT13=1979
EXTT14=1993
EXTT15=1981 (original 1973 Don Henley and Glen Frey)
PLAYORDER=
